<svg width="200" height="200" viewBox="0 0 200 200" xmlns="http://www.w3.org/2000/svg">
  <!-- Himmel -->
  <rect width="200" height="200" fill="#dbeafe"/>
  <!-- Sonne -->
  <circle cx="160" cy="35" r="22" fill="#fde68a"/>
  <line x1="160" y1="7"  x2="160" y2="1"  stroke="#fbbf24" stroke-width="2.5" stroke-linecap="round"/>
  <line x1="160" y1="63" x2="160" y2="69" stroke="#fbbf24" stroke-width="2.5" stroke-linecap="round"/>
  <line x1="132" y1="35" x2="126" y2="35" stroke="#fbbf24" stroke-width="2.5" stroke-linecap="round"/>
  <line x1="188" y1="35" x2="194" y2="35" stroke="#fbbf24" stroke-width="2.5" stroke-linecap="round"/>
  <line x1="140" y1="15" x2="136" y2="11" stroke="#fbbf24" stroke-width="2.5" stroke-linecap="round"/>
  <line x1="180" y1="55" x2="184" y2="59" stroke="#fbbf24" stroke-width="2.5" stroke-linecap="round"/>
  <line x1="180" y1="15" x2="184" y2="11" stroke="#fbbf24" stroke-width="2.5" stroke-linecap="round"/>
  <line x1="140" y1="55" x2="136" y2="59" stroke="#fbbf24" stroke-width="2.5" stroke-linecap="round"/>
  <!-- Wolken -->
  <ellipse cx="40"  cy="30" rx="22" ry="12" fill="white" opacity="0.85"/>
  <ellipse cx="58"  cy="24" rx="16" ry="11" fill="white" opacity="0.85"/>
  <ellipse cx="24"  cy="26" rx="14" ry="10" fill="white" opacity="0.85"/>
  <!-- Ast -->
  <rect x="10" y="145" width="180" height="14" rx="7" fill="#92400e"/>
  <line x1="30"  y1="147" x2="50"  y2="158" stroke="#78350f" stroke-width="1.5" opacity="0.5"/>
  <line x1="80"  y1="146" x2="100" y2="158" stroke="#78350f" stroke-width="1.5" opacity="0.5"/>
  <line x1="130" y1="147" x2="150" y2="158" stroke="#78350f" stroke-width="1.5" opacity="0.5"/>
  <!-- Vogel Körper -->
  <ellipse cx="100" cy="118" rx="28" ry="22" fill="#3b82f6"/>
  <ellipse cx="104" cy="122" rx="16" ry="13" fill="#bfdbfe"/>
  <!-- FEHLER: Flügel links — lila statt orange -->
  <ellipse cx="76"  cy="116" rx="14" ry="7" fill="#a855f7" transform="rotate(-20 76 116)"/>
  <ellipse cx="70"  cy="122" rx="12" ry="6" fill="#9333ea" transform="rotate(-10 70 122)"/>
  <ellipse cx="74"  cy="128" rx="10" ry="5" fill="#a855f7" transform="rotate(5 74 128)"/>
  <!-- Flügel rechts -->
  <ellipse cx="120" cy="114" rx="10" ry="5" fill="#2563eb" transform="rotate(25 120 114)"/>
  <!-- Schwanz -->
  <polygon points="72,130 55,150 65,138 58,158 75,140" fill="#1d4ed8"/>
  <!-- Kopf -->
  <circle cx="112" cy="96" r="18" fill="#3b82f6"/>
  <ellipse cx="112" cy="80" rx="6" ry="9" fill="#1d4ed8"/>
  <!-- Auge -->
  <circle cx="118" cy="93" r="6" fill="white"/>
  <circle cx="119" cy="93" r="3.5" fill="#1e293b"/>
  <circle cx="120" cy="92" r="1.2" fill="white"/>
  <!-- Schnabel gelb -->
  <polygon points="128,96 142,93 128,100" fill="#fbbf24"/>
  <line x1="128" y1="96" x2="142" y2="93" stroke="#f59e0b" stroke-width="1"/>
  <line x1="128" y1="100" x2="142" y2="93" stroke="#f59e0b" stroke-width="1"/>
  <!-- Füße -->
  <line x1="95"  y1="138" x2="90"  y2="148" stroke="#d97706" stroke-width="2.5" stroke-linecap="round"/>
  <line x1="105" y1="139" x2="108" y2="148" stroke="#d97706" stroke-width="2.5" stroke-linecap="round"/>
  <line x1="90" y1="148" x2="82" y2="152" stroke="#d97706" stroke-width="2" stroke-linecap="round"/>
  <line x1="90" y1="148" x2="88" y2="154" stroke="#d97706" stroke-width="2" stroke-linecap="round"/>
  <line x1="90" y1="148" x2="96" y2="153" stroke="#d97706" stroke-width="2" stroke-linecap="round"/>
  <line x1="108" y1="148" x2="102" y2="153" stroke="#d97706" stroke-width="2" stroke-linecap="round"/>
  <line x1="108" y1="148" x2="108" y2="155" stroke="#d97706" stroke-width="2" stroke-linecap="round"/>
  <line x1="108" y1="148" x2="114" y2="152" stroke="#d97706" stroke-width="2" stroke-linecap="round"/>
  <!-- Blatt am Ast -->
  <ellipse cx="30" cy="142" rx="8" ry="4" fill="#4ade80" transform="rotate(-30 30 142)"/>
  <line x1="26" y1="144" x2="34" y2="140" stroke="#16a34a" stroke-width="1"/>
</svg>
